<svg id="Ebene_1" data-name="Ebene 1" xmlns="http://www.w3.org/2000/svg" viewBox="0 0 400 200"><path d="M61,126c-1.78-1.28-3-1.28-4.7-.07L32.79,102.4a3.39,3.39,0,0,0-.11-4.75Q44.46,85.89,56.2,74.13c1.48,1.21,3.06,1.38,4.92-.07l25.8,25.8,25.82-25.81a3.54,3.54,0,0,0,5,0q12.87,12.89,25.78,25.78L169.36,74a3.78,3.78,0,0,0,2.49,1.09,3.6,3.6,0,0,0,2.48-1l25.83,25.83L226,74a3.44,3.44,0,0,0,4.88.11l23.53,23.53c-1.27,2-1.29,2.82-.11,4.66L230.75,125.9a3.46,3.46,0,0,0-4.67,0L200.18,100l-26,26a3.47,3.47,0,0,0-4.79,0l-25.88-25.88L117.65,126a3.47,3.47,0,0,0-4.79,0L86.93,100.05C78.26,108.72,69.64,117.33,61,126Zm-.61-32.93v2.3a1.65,1.65,0,0,1-.43-.51A4.07,4.07,0,0,0,57.46,93a5,5,0,0,0-6.17,3.55,7.63,7.63,0,0,0,0,4.29,4.8,4.8,0,0,0,4.48,3.71,4.28,4.28,0,0,0,4.36-2.21c.05-.09.12-.16.18-.25l.11,0v2.26h2.24c.16-.81.13-10.86,0-11.37Zm174.35,6c0-.52-.05-.88-.08-1.22a5.3,5.3,0,0,0-3.89-4.66,6.49,6.49,0,0,0-2.36-.24,5.41,5.41,0,0,0-4.74,3.1,6.65,6.65,0,0,0-.52,3.63,5.37,5.37,0,0,0,4.17,4.8,6.57,6.57,0,0,0,2.72.09,5.21,5.21,0,0,0,4.41-3.81A12.76,12.76,0,0,0,234.74,99Zm-114.82,5.45V93h-2.31v.86c0,1.68,0,3.37,0,5a6.54,6.54,0,0,1-.31,1.92,2.86,2.86,0,0,1-3.15,1.81,2.66,2.66,0,0,1-2.52-2.24,5.88,5.88,0,0,1-.11-1.11c0-1.83,0-3.65,0-5.48V93h-2.36v.79c0,1.85,0,3.7,0,5.54a11.28,11.28,0,0,0,.11,1.54,4.39,4.39,0,0,0,8.07,1.64,1.3,1.3,0,0,1,.15-.18l.13,0v2c.22,0,.35,0,.49,0C118.69,104.47,119.27,104.46,119.92,104.46Zm54.74-2h-1c-1.36,0-1.75-.41-1.77-1.76v-5c0-.2,0-.4,0-.69h2.7a10.9,10.9,0,0,0,0-2H171.9V90.22h-2.36V93H168v2h1.58v.86c0,1.52,0,3,0,4.56a8.9,8.9,0,0,0,.12,1.46,2.67,2.67,0,0,0,2.18,2.37,18.62,18.62,0,0,0,2.37.19,1.78,1.78,0,0,0,.45-.08Z" style="fill:#3a2a78"/><path d="M367.66,97.59a3.41,3.41,0,0,0,0,5L315.85,154.4c-1.84-1.72-3.17-1.82-5.24-.28l-25.19-25.19L259.6,154.68l-.61-.55,24.78-24.8-.07-.13-40.25,13.46,5.68,5.71,5.68,5.73-.58.4a1.33,1.33,0,0,1-.2-.16c-1.69-1.68-3.37-3.38-5.05-5.07-2-2-4-4-5.93-6-.4-.42-.74-.26-1.13-.13l-25.27,8.45-12.51,4.18-.6.19-.26-.67,38.79-13-11.4-11.48.47-.53c.21.2.4.36.57.54,3.54,3.55,7.07,7.09,10.59,10.66a1,1,0,0,0,1.27.32q20.15-6.76,40.3-13.49l.55-.2.05-.1a.09.09,0,0,0,0-.07L259,102.66c1.44-1.68,1.51-3.32.19-5l25.48-25.48c-.52-.4-38.67-13.25-41.73-14.09L231.17,69.74l-.5-.46,11.41-11.47-38.77-13,.24-.7,39,13L254.23,45.6l.56.49c-3.78,3.79-7.52,7.55-11.36,11.39l39.92,13.35.1-.07a.09.09,0,0,0,0-.07.21.21,0,0,0,0-.06l-24.56-24.5.67-.42Q272.35,58.55,285.3,71.5L311,45.79a3.51,3.51,0,0,0,5-.09Zm-72.54-2.7h.17q2.9,8.3,5.78,16.6h5.7c.64-1.87,1.28-3.72,1.92-5.57s1.28-3.71,1.93-5.56,1.24-3.69,1.93-5.5l.14,0v14.23c0,.78,0,1.57,0,2.36h6.45c.14-.75.12-26.5,0-27h-7.93c-1.2,3.15-2.38,6.28-3.59,9.4s-2.35,6.21-3.64,9.45l-7.36-18.84h-8v27h6.52Zm36.08,10.92V84.24h-6.53v27.19c.84.15,15.15.11,15.63,0v-5.58Z" style="fill:#3a2a78"/><path d="M157.78,142.16l11.55-11.55.56.48-11.3,11.3c.31.12.52.21.74.28l12,4a1.6,1.6,0,0,0,1.08,0l12.36-4.14.56-.21-11.44-11.52.54-.5,11.71,11.78,39-13,.31.67-38.69,12.92,11.32,11.4-.4.46L185.89,143l-12.55,4.19,0,.14,23.86,8L197,156a3.71,3.71,0,0,1-.43-.08l-6.45-2.15c-5.85-2-11.7-3.9-17.55-5.87a1.88,1.88,0,0,0-1.28,0l-23.48,7.84c-.28.1-.57.18-.91.28l-.27-.66,23.94-8v-.13L158,143,146.3,154.68l-.53-.5,11.44-11.44-38.89-13,.19-.72Z" style="fill:#3a2a78"/><path d="M157.2,57.4,145.84,46.05l.39-.51a.61.61,0,0,1,.21.08c.18.15.34.32.51.49q5.27,5.25,10.51,10.53a1,1,0,0,0,1.22.29c3.76-1.28,7.53-2.53,11.3-3.79a1.39,1.39,0,0,0,.58-.33l-23.86-8,.18-.68.7.21,23.61,7.89a2.29,2.29,0,0,0,1.55,0l23.54-7.86.64-.21.26.61a3.49,3.49,0,0,1-.37.2l-6,2L174,52.58l-.77.29c.29.12.44.19.6.24L185.4,57a.85.85,0,0,0,1-.25c3.48-3.53,7-7,10.48-10.56.2-.2.36-.43.63-.75l.54.62L186.77,57.43l38.71,12.92-.21.7-39-13L174.49,69.64l-.47-.43,11.35-11.43c-.3-.12-.51-.21-.73-.28l-12.1-4a1.6,1.6,0,0,0-1.08-.05c-4.1,1.39-8.2,2.75-12.3,4.12l-.56.22,2.85,2.86c.94.94,1.89,1.88,2.83,2.83s1.85,1.85,2.78,2.78,1.88,1.88,2.89,2.87l-.53.51-.59-.57c-3.47-3.47-7-6.94-10.41-10.43a1.2,1.2,0,0,0-1.45-.36Q138.1,64.57,119.2,70.86l-.64.2-.29-.66C131.23,66.06,144.16,61.77,157.2,57.4Z" style="fill:#3a2a78"/><path d="M61.61,129.8l.27-.68,39,13,11.77-11.66.5.48-11.41,11.46,38.76,12.94-.18.72-39.09-13L89.6,154.61l-.57-.5,11.35-11.37Z" style="fill:#3a2a78"/><path d="M113.18,69.2l-.54.5L101,58.06l-39.1,13-.27-.68,38.78-13L89.05,46l.52-.38,11.62,11.56,39.1-13,.28.68L101.8,57.8Z" style="fill:#3a2a78"/><path d="M225.91,130.54l.55.48c-7.86,7.87-15.75,15.67-23.62,23.54l-.56-.49Z" style="fill:#3a2a78"/><path d="M117.3,130.92l.55-.49,23.63,23.78-.55.48C133.06,146.78,125.21,138.89,117.3,130.92Z" style="fill:#3a2a78"/><path d="M226.49,69.16l-.58.45L202.35,46.14l.5-.54Z" style="fill:#3a2a78"/><path d="M117.88,69.67l-.54-.5L140.9,45.49l.5.54Q129.63,57.87,117.88,69.67Z" style="fill:#3a2a78"/><path d="M84.81,154.22l-.38.35L60.77,130.84l.44-.29Z" style="fill:#3a2a78"/><path d="M84.39,45.62l.33.36L61.2,69.63l-.4-.36Z" style="fill:#3a2a78"/><path d="M117.83,71.74a2.56,2.56,0,0,1-2.55,2.6,2.58,2.58,0,1,1,2.55-2.6Z" style="fill:#3a2a78"/><path d="M310.89,43.47a2.55,2.55,0,0,1,2.58-2.57,2.6,2.6,0,0,1,2.59,2.58,2.63,2.63,0,0,1-2.6,2.58A2.59,2.59,0,0,1,310.89,43.47Z" style="fill:#3a2a78"/><path d="M256.86,159.28a2.56,2.56,0,0,1-2.55-2.6,2.59,2.59,0,0,1,2.61-2.56,2.62,2.62,0,0,1,2.56,2.62A2.59,2.59,0,0,1,256.86,159.28Z" style="fill:#3a2a78"/><path d="M256.88,40.92a2.59,2.59,0,1,1,0,5.17,2.59,2.59,0,0,1,0-5.17Z" style="fill:#3a2a78"/><path d="M231.12,71.75a2.59,2.59,0,0,1-5.17,0,2.59,2.59,0,0,1,5.17,0Z" style="fill:#3a2a78"/><path d="M117.83,128.32a2.58,2.58,0,0,1-2.56,2.6,2.61,2.61,0,0,1-2.61-2.56,2.64,2.64,0,0,1,2.57-2.61A2.61,2.61,0,0,1,117.83,128.32Z" style="fill:#3a2a78"/><path d="M171.83,130.92a2.59,2.59,0,0,1,0-5.17,2.63,2.63,0,0,1,2.6,2.57A2.59,2.59,0,0,1,171.83,130.92Z" style="fill:#3a2a78"/><path d="M372.52,100.09a2.58,2.58,0,1,1-5.16,0,2.58,2.58,0,0,1,5.16,0Z" style="fill:#3a2a78"/><path d="M58.58,130.92A2.56,2.56,0,0,1,56,128.29a2.58,2.58,0,1,1,2.54,2.63Z" style="fill:#3a2a78"/><path d="M231,128.34a2.57,2.57,0,0,1-2.59,2.58,2.6,2.6,0,0,1-2.57-2.54,2.63,2.63,0,0,1,2.57-2.63A2.6,2.6,0,0,1,231,128.34Z" style="fill:#3a2a78"/><path d="M202.8,43.5a2.53,2.53,0,0,1-2.56,2.59,2.59,2.59,0,1,1,2.56-2.59Z" style="fill:#3a2a78"/><path d="M84.4,43.52A2.55,2.55,0,0,1,87,40.92a2.59,2.59,0,0,1,0,5.17A2.54,2.54,0,0,1,84.4,43.52Z" style="fill:#3a2a78"/><path d="M143.59,159.28a2.57,2.57,0,0,1-2.57-2.6,2.59,2.59,0,0,1,5.17,0A2.58,2.58,0,0,1,143.59,159.28Z" style="fill:#3a2a78"/><path d="M169.34,71.76a2.55,2.55,0,0,1,2.58-2.57,2.58,2.58,0,1,1-2.58,2.57Z" style="fill:#3a2a78"/><path d="M256.83,97.49a2.56,2.56,0,0,1,2.55,2.6,2.59,2.59,0,0,1-2.6,2.57,2.63,2.63,0,0,1-2.56-2.62A2.59,2.59,0,0,1,256.83,97.49Z" style="fill:#3a2a78"/><path d="M146.19,43.49a2.59,2.59,0,1,1-2.61-2.56A2.6,2.6,0,0,1,146.19,43.49Z" style="fill:#3a2a78"/><path d="M84.4,156.7A2.57,2.57,0,1,1,87,159.28,2.53,2.53,0,0,1,84.4,156.7Z" style="fill:#3a2a78"/><path d="M202.8,156.72a2.53,2.53,0,0,1-2.58,2.56,2.58,2.58,0,1,1,2.58-2.56Z" style="fill:#3a2a78"/><path d="M315.69,156.41a2.57,2.57,0,1,1-2.55-2.61A2.56,2.56,0,0,1,315.69,156.41Z" style="fill:#3a2a78"/><path d="M58.63,74.34A2.54,2.54,0,0,1,56,71.77a2.58,2.58,0,1,1,2.59,2.57Z" style="fill:#3a2a78"/><path d="M27.8,100.1a2.57,2.57,0,1,1,5.14,0,2.57,2.57,0,1,1-5.14,0Z" style="fill:#3a2a78"/><path d="M53.37,98.69c0-.32.06-.65.12-1a3.22,3.22,0,0,1,3.26-2.78,3.39,3.39,0,0,1,3.52,2.68,4.59,4.59,0,0,1,0,2,3.42,3.42,0,0,1-3.7,2.89,3.33,3.33,0,0,1-3.2-3.28,5.23,5.23,0,0,1,0-.56Z" style="fill:#3a2a78"/><path d="M232.11,100.22a3.37,3.37,0,0,1-6.41,0,5.09,5.09,0,0,1,0-3,3.36,3.36,0,0,1,6.54.63c0,.27.05.55.07.83A8.81,8.81,0,0,1,232.11,100.22Z" style="fill:#3a2a78"/></svg>